<svg width="170" height="171" viewBox="0 0 170 171" fill="none" xmlns="http://www.w3.org/2000/svg">
<path fill-rule="evenodd" clip-rule="evenodd" d="M34.9991 5.74898C54.4153 -14.2098 102.96 20.7158 34.9991 65.6252C-32.9622 20.7202 15.5828 -14.2098 34.9991 5.74898Z" fill="#49CE3D" fill-opacity="0.41"/>
<g clip-path="url(#clip0_21_92)">
<path d="M156.236 101.639C155.826 101.229 155.269 100.998 154.689 100.998C154.109 100.998 153.553 101.229 153.143 101.639L145.937 108.844L162.155 125.063L169.361 117.861C169.565 117.658 169.726 117.417 169.837 117.151C169.947 116.885 170.004 116.6 170.004 116.313C170.004 116.025 169.947 115.74 169.837 115.474C169.726 115.208 169.565 114.967 169.361 114.764L156.236 101.639V101.639ZM159.062 128.156L142.844 111.938L114.407 140.375H115.312C115.892 140.375 116.449 140.605 116.859 141.016C117.269 141.426 117.5 141.982 117.5 142.563V144.75H119.687C120.267 144.75 120.824 144.98 121.234 145.391C121.644 145.801 121.875 146.357 121.875 146.938V149.125H124.062C124.642 149.125 125.199 149.355 125.609 149.766C126.019 150.176 126.25 150.732 126.25 151.313V153.5H128.437C129.017 153.5 129.574 153.73 129.984 154.141C130.394 154.551 130.625 155.107 130.625 155.688V156.593L159.062 128.156V128.156ZM126.39 160.828C126.298 160.583 126.25 160.324 126.25 160.063V157.875H124.062C123.482 157.875 122.926 157.645 122.515 157.234C122.105 156.824 121.875 156.268 121.875 155.688V153.5H119.687C119.107 153.5 118.551 153.27 118.14 152.859C117.73 152.449 117.5 151.893 117.5 151.313V149.125H115.312C114.732 149.125 114.176 148.895 113.765 148.484C113.355 148.074 113.125 147.518 113.125 146.938V144.75H110.937C110.676 144.75 110.416 144.702 110.172 144.61L109.389 145.389C109.18 145.599 109.016 145.849 108.907 146.124L100.157 167.999C99.9981 168.396 99.9592 168.832 100.045 169.251C100.131 169.671 100.339 170.056 100.641 170.358C100.944 170.661 101.329 170.868 101.749 170.955C102.168 171.041 102.603 171.002 103.001 170.843L124.876 162.093C125.151 161.983 125.401 161.82 125.611 161.611L126.39 160.833V160.828Z" fill="#49CE3D" fill-opacity="0.41"/>
</g>
<path fill-rule="evenodd" clip-rule="evenodd" d="M0 103.188C0 102.607 0.230468 102.051 0.640704 101.641C1.05094 101.23 1.60734 101 2.1875 101H10.9375C11.5177 101 12.0741 101.23 12.4843 101.641C12.8945 102.051 13.125 102.607 13.125 103.188C13.125 103.768 12.8945 104.324 12.4843 104.734C12.0741 105.145 11.5177 105.375 10.9375 105.375H2.1875C1.60734 105.375 1.05094 105.145 0.640704 104.734C0.230468 104.324 0 103.768 0 103.188V103.188ZM17.5 103.188C17.5 102.607 17.7305 102.051 18.1407 101.641C18.5509 101.23 19.1073 101 19.6875 101H63.4375C64.0177 101 64.5741 101.23 64.9843 101.641C65.3945 102.051 65.625 102.607 65.625 103.188C65.625 103.768 65.3945 104.324 64.9843 104.734C64.5741 105.145 64.0177 105.375 63.4375 105.375H19.6875C19.1073 105.375 18.5509 105.145 18.1407 104.734C17.7305 104.324 17.5 103.768 17.5 103.188V103.188ZM0 111.938C0 111.357 0.230468 110.801 0.640704 110.391C1.05094 109.98 1.60734 109.75 2.1875 109.75H10.9375C11.5177 109.75 12.0741 109.98 12.4843 110.391C12.8945 110.801 13.125 111.357 13.125 111.938C13.125 112.518 12.8945 113.074 12.4843 113.484C12.0741 113.895 11.5177 114.125 10.9375 114.125H2.1875C1.60734 114.125 1.05094 113.895 0.640704 113.484C0.230468 113.074 0 112.518 0 111.938ZM17.5 111.938C17.5 111.357 17.7305 110.801 18.1407 110.391C18.5509 109.98 19.1073 109.75 19.6875 109.75H59.0625C59.6427 109.75 60.1991 109.98 60.6093 110.391C61.0195 110.801 61.25 111.357 61.25 111.938C61.25 112.518 61.0195 113.074 60.6093 113.484C60.1991 113.895 59.6427 114.125 59.0625 114.125H19.6875C19.1073 114.125 18.5509 113.895 18.1407 113.484C17.7305 113.074 17.5 112.518 17.5 111.938ZM0 120.688C0 120.107 0.230468 119.551 0.640704 119.141C1.05094 118.73 1.60734 118.5 2.1875 118.5H10.9375C11.5177 118.5 12.0741 118.73 12.4843 119.141C12.8945 119.551 13.125 120.107 13.125 120.688C13.125 121.268 12.8945 121.824 12.4843 122.234C12.0741 122.645 11.5177 122.875 10.9375 122.875H2.1875C1.60734 122.875 1.05094 122.645 0.640704 122.234C0.230468 121.824 0 121.268 0 120.688ZM17.5 120.688C17.5 120.107 17.7305 119.551 18.1407 119.141C18.5509 118.73 19.1073 118.5 19.6875 118.5H67.8125C68.3927 118.5 68.9491 118.73 69.3593 119.141C69.7695 119.551 70 120.107 70 120.688C70 121.268 69.7695 121.824 69.3593 122.234C68.9491 122.645 68.3927 122.875 67.8125 122.875H19.6875C19.1073 122.875 18.5509 122.645 18.1407 122.234C17.7305 121.824 17.5 121.268 17.5 120.688ZM0 129.438C0 128.857 0.230468 128.301 0.640704 127.891C1.05094 127.48 1.60734 127.25 2.1875 127.25H10.9375C11.5177 127.25 12.0741 127.48 12.4843 127.891C12.8945 128.301 13.125 128.857 13.125 129.438C13.125 130.018 12.8945 130.574 12.4843 130.984C12.0741 131.395 11.5177 131.625 10.9375 131.625H2.1875C1.60734 131.625 1.05094 131.395 0.640704 130.984C0.230468 130.574 0 130.018 0 129.438ZM17.5 129.438C17.5 128.857 17.7305 128.301 18.1407 127.891C18.5509 127.48 19.1073 127.25 19.6875 127.25H54.6875C55.2677 127.25 55.8241 127.48 56.2343 127.891C56.6445 128.301 56.875 128.857 56.875 129.438C56.875 130.018 56.6445 130.574 56.2343 130.984C55.8241 131.395 55.2677 131.625 54.6875 131.625H19.6875C19.1073 131.625 18.5509 131.395 18.1407 130.984C17.7305 130.574 17.5 130.018 17.5 129.438ZM0 138.188C0 137.607 0.230468 137.051 0.640704 136.641C1.05094 136.23 1.60734 136 2.1875 136H10.9375C11.5177 136 12.0741 136.23 12.4843 136.641C12.8945 137.051 13.125 137.607 13.125 138.188C13.125 138.768 12.8945 139.324 12.4843 139.734C12.0741 140.145 11.5177 140.375 10.9375 140.375H2.1875C1.60734 140.375 1.05094 140.145 0.640704 139.734C0.230468 139.324 0 138.768 0 138.188ZM17.5 138.188C17.5 137.607 17.7305 137.051 18.1407 136.641C18.5509 136.23 19.1073 136 19.6875 136H54.6875C55.2677 136 55.8241 136.23 56.2343 136.641C56.6445 137.051 56.875 137.607 56.875 138.188C56.875 138.768 56.6445 139.324 56.2343 139.734C55.8241 140.145 55.2677 140.375 54.6875 140.375H19.6875C19.1073 140.375 18.5509 140.145 18.1407 139.734C17.7305 139.324 17.5 138.768 17.5 138.188ZM0 146.938C0 146.357 0.230468 145.801 0.640704 145.391C1.05094 144.98 1.60734 144.75 2.1875 144.75H10.9375C11.5177 144.75 12.0741 144.98 12.4843 145.391C12.8945 145.801 13.125 146.357 13.125 146.938C13.125 147.518 12.8945 148.074 12.4843 148.484C12.0741 148.895 11.5177 149.125 10.9375 149.125H2.1875C1.60734 149.125 1.05094 148.895 0.640704 148.484C0.230468 148.074 0 147.518 0 146.938ZM17.5 146.938C17.5 146.357 17.7305 145.801 18.1407 145.391C18.5509 144.98 19.1073 144.75 19.6875 144.75H63.4375C64.0177 144.75 64.5741 144.98 64.9843 145.391C65.3945 145.801 65.625 146.357 65.625 146.938C65.625 147.518 65.3945 148.074 64.9843 148.484C64.5741 148.895 64.0177 149.125 63.4375 149.125H19.6875C19.1073 149.125 18.5509 148.895 18.1407 148.484C17.7305 148.074 17.5 147.518 17.5 146.938ZM0 155.688C0 155.107 0.230468 154.551 0.640704 154.141C1.05094 153.73 1.60734 153.5 2.1875 153.5H10.9375C11.5177 153.5 12.0741 153.73 12.4843 154.141C12.8945 154.551 13.125 155.107 13.125 155.688C13.125 156.268 12.8945 156.824 12.4843 157.234C12.0741 157.645 11.5177 157.875 10.9375 157.875H2.1875C1.60734 157.875 1.05094 157.645 0.640704 157.234C0.230468 156.824 0 156.268 0 155.688ZM17.5 155.688C17.5 155.107 17.7305 154.551 18.1407 154.141C18.5509 153.73 19.1073 153.5 19.6875 153.5H45.9375C46.5177 153.5 47.0741 153.73 47.4843 154.141C47.8945 154.551 48.125 155.107 48.125 155.688C48.125 156.268 47.8945 156.824 47.4843 157.234C47.0741 157.645 46.5177 157.875 45.9375 157.875H19.6875C19.1073 157.875 18.5509 157.645 18.1407 157.234C17.7305 156.824 17.5 156.268 17.5 155.688ZM0 164.438C0 163.857 0.230468 163.301 0.640704 162.891C1.05094 162.48 1.60734 162.25 2.1875 162.25H10.9375C11.5177 162.25 12.0741 162.48 12.4843 162.891C12.8945 163.301 13.125 163.857 13.125 164.438C13.125 165.018 12.8945 165.574 12.4843 165.984C12.0741 166.395 11.5177 166.625 10.9375 166.625H2.1875C1.60734 166.625 1.05094 166.395 0.640704 165.984C0.230468 165.574 0 165.018 0 164.438ZM17.5 164.438C17.5 163.857 17.7305 163.301 18.1407 162.891C18.5509 162.48 19.1073 162.25 19.6875 162.25H67.8125C68.3927 162.25 68.9491 162.48 69.3593 162.891C69.7695 163.301 70 163.857 70 164.438C70 165.018 69.7695 165.574 69.3593 165.984C68.9491 166.395 68.3927 166.625 67.8125 166.625H19.6875C19.1073 166.625 18.5509 166.395 18.1407 165.984C17.7305 165.574 17.5 165.018 17.5 164.438Z" fill="#49CE3D" fill-opacity="0.41"/>
<g clip-path="url(#clip1_21_92)">
<path d="M163.438 13.125C164.018 13.125 164.574 13.3555 164.984 13.7657C165.395 14.1759 165.625 14.7323 165.625 15.3125V54.6875C165.625 55.2677 165.395 55.8241 164.984 56.2343C164.574 56.6445 164.018 56.875 163.438 56.875H106.562C105.982 56.875 105.426 56.6445 105.016 56.2343C104.605 55.8241 104.375 55.2677 104.375 54.6875V15.3125C104.375 14.7323 104.605 14.1759 105.016 13.7657C105.426 13.3555 105.982 13.125 106.562 13.125H163.438ZM106.562 8.75C104.822 8.75 103.153 9.4414 101.922 10.6721C100.691 11.9028 100 13.572 100 15.3125V54.6875C100 56.428 100.691 58.0972 101.922 59.3279C103.153 60.5586 104.822 61.25 106.562 61.25H163.438C165.178 61.25 166.847 60.5586 168.078 59.3279C169.309 58.0972 170 56.428 170 54.6875V15.3125C170 13.572 169.309 11.9028 168.078 10.6721C166.847 9.4414 165.178 8.75 163.438 8.75H106.562Z" fill="#49CE3D" fill-opacity="0.41"/>
<path d="M130.625 24.0625C130.625 23.4823 130.855 22.9259 131.266 22.5157C131.676 22.1055 132.232 21.875 132.812 21.875H154.687C155.268 21.875 155.824 22.1055 156.234 22.5157C156.644 22.9259 156.875 23.4823 156.875 24.0625C156.875 24.6427 156.644 25.1991 156.234 25.6093C155.824 26.0195 155.268 26.25 154.687 26.25H132.812C132.232 26.25 131.676 26.0195 131.266 25.6093C130.855 25.1991 130.625 24.6427 130.625 24.0625ZM124.08 20.3263C124.284 20.5295 124.445 20.7708 124.556 21.0366C124.666 21.3024 124.723 21.5873 124.723 21.875C124.723 22.1627 124.666 22.4476 124.556 22.7134C124.445 22.9792 124.284 23.2206 124.08 23.4238L117.517 29.9863C117.314 30.19 117.073 30.3516 116.807 30.4619C116.541 30.5721 116.256 30.6289 115.969 30.6289C115.681 30.6289 115.396 30.5721 115.13 30.4619C114.865 30.3516 114.623 30.19 114.42 29.9863L112.232 27.7988C112.029 27.5954 111.868 27.3539 111.758 27.0882C111.648 26.8224 111.591 26.5376 111.591 26.25C111.591 25.6691 111.822 25.112 112.232 24.7013C112.643 24.2905 113.2 24.0597 113.781 24.0597C114.362 24.0597 114.919 24.2905 115.33 24.7013L115.969 25.3444L120.982 20.3263C121.186 20.1225 121.427 19.9609 121.693 19.8506C121.959 19.7404 122.243 19.6836 122.531 19.6836C122.819 19.6836 123.104 19.7404 123.37 19.8506C123.635 19.9609 123.877 20.1225 124.08 20.3263ZM130.625 41.5625C130.625 40.9823 130.855 40.4259 131.266 40.0157C131.676 39.6055 132.232 39.375 132.812 39.375H154.687C155.268 39.375 155.824 39.6055 156.234 40.0157C156.644 40.4259 156.875 40.9823 156.875 41.5625C156.875 42.1427 156.644 42.6991 156.234 43.1093C155.824 43.5195 155.268 43.75 154.687 43.75H132.812C132.232 43.75 131.676 43.5195 131.266 43.1093C130.855 42.6991 130.625 42.1427 130.625 41.5625ZM124.08 37.8263C124.284 38.0295 124.445 38.2708 124.556 38.5366C124.666 38.8024 124.723 39.0873 124.723 39.375C124.723 39.6627 124.666 39.9476 124.556 40.2134C124.445 40.4792 124.284 40.7206 124.08 40.9238L117.517 47.4863C117.314 47.69 117.073 47.8516 116.807 47.9619C116.541 48.0721 116.256 48.1289 115.969 48.1289C115.681 48.1289 115.396 48.0721 115.13 47.9619C114.865 47.8516 114.623 47.69 114.42 47.4863L112.232 45.2988C112.029 45.0954 111.868 44.8539 111.758 44.5882C111.648 44.3224 111.591 44.0376 111.591 43.75C111.591 43.4624 111.648 43.1776 111.758 42.9118C111.868 42.6461 112.029 42.4046 112.232 42.2013C112.436 41.9979 112.677 41.8365 112.943 41.7265C113.209 41.6164 113.494 41.5597 113.781 41.5597C114.069 41.5597 114.354 41.6164 114.619 41.7265C114.885 41.8365 115.127 41.9979 115.33 42.2013L115.969 42.8444L120.982 37.8263C121.186 37.6225 121.427 37.4609 121.693 37.3506C121.959 37.2404 122.243 37.1836 122.531 37.1836C122.819 37.1836 123.104 37.2404 123.37 37.3506C123.635 37.4609 123.877 37.6225 124.08 37.8263Z" fill="#49CE3D" fill-opacity="0.41"/>
</g>
<defs>
<clipPath id="clip0_21_92">
<rect width="70" height="70" fill="white" transform="translate(100 101)"/>
</clipPath>
<clipPath id="clip1_21_92">
<rect width="70" height="70" fill="white" transform="translate(100)"/>
</clipPath>
</defs>
</svg>
