<svg width="70" height="70" viewBox="0 0 70 70" fill="none" xmlns="http://www.w3.org/2000/svg">
<g clip-path="url(#clip0_23_2)">
<path d="M56.2359 0.638761C55.8257 0.228668 55.2694 -0.00170898 54.6893 -0.00170898C54.1093 -0.00170898 53.553 0.228668 53.1428 0.638761L45.9371 7.84439L62.1553 24.0625L69.3609 16.8613C69.5646 16.6581 69.7262 16.4167 69.8365 16.1509C69.9468 15.8851 70.0036 15.6002 70.0036 15.3125C70.0036 15.0248 69.9468 14.7399 69.8365 14.4741C69.7262 14.2084 69.5646 13.967 69.3609 13.7638L56.2359 0.638761V0.638761ZM59.0621 27.1556L42.844 10.9375L14.4065 39.375H15.3121C15.8923 39.375 16.4487 39.6055 16.8589 40.0157C17.2692 40.4259 17.4996 40.9823 17.4996 41.5625V43.75H19.6871C20.2673 43.75 20.8237 43.9805 21.2339 44.3907C21.6442 44.8009 21.8746 45.3573 21.8746 45.9375V48.125H24.0621C24.6423 48.125 25.1987 48.3555 25.6089 48.7657C26.0192 49.1759 26.2496 49.7323 26.2496 50.3125V52.5H28.4371C29.0173 52.5 29.5737 52.7305 29.9839 53.1407C30.3942 53.5509 30.6246 54.1073 30.6246 54.6875V55.5931L59.0621 27.1556V27.1556ZM26.3896 59.8281C26.2976 59.5833 26.2502 59.324 26.2496 59.0625V56.875H24.0621C23.482 56.875 22.9256 56.6445 22.5153 56.2343C22.1051 55.8241 21.8746 55.2677 21.8746 54.6875V52.5H19.6871C19.107 52.5 18.5506 52.2695 18.1403 51.8593C17.7301 51.4491 17.4996 50.8927 17.4996 50.3125V48.125H15.3121C14.732 48.125 14.1756 47.8945 13.7653 47.4843C13.3551 47.0741 13.1246 46.5177 13.1246 45.9375V43.75H10.9371C10.6756 43.7496 10.4163 43.7022 10.1715 43.61L9.38839 44.3888C9.17992 44.5987 9.0162 44.8487 8.90714 45.1238L0.15714 66.9988C-0.00198182 67.3963 -0.0409346 67.8318 0.0451105 68.2512C0.131156 68.6707 0.338415 69.0557 0.641193 69.3585C0.943971 69.6612 1.32895 69.8685 1.74841 69.9545C2.16787 70.0406 2.60336 70.0016 3.00089 69.8425L24.8759 61.0925C25.1509 60.9834 25.401 60.8197 25.6109 60.6113L26.3896 59.8325V59.8281Z" fill="#1C1F1B" fill-opacity="0.83"/>
</g>
<defs>
<clipPath id="clip0_23_2">
<rect width="70" height="70" fill="white"/>
</clipPath>
</defs>
</svg>
